<svg width="36" height="36" viewBox="0 0 36 36" fill="none" xmlns="http://www.w3.org/2000/svg">
<path d="M26.2551 0H9.74486C4.37145 0 0 4.37145 0 9.74485V26.2554C0 31.6285 4.37145 35.9999 9.74486 35.9999H26.2554C31.6285 35.9999 35.9999 31.6285 35.9999 26.2554V9.74485C35.9999 4.37145 31.6285 0 26.2551 0V0ZM33.8895 26.2554C33.8895 30.4648 30.4648 33.8895 26.2551 33.8895H9.74486C5.53518 33.8895 2.11047 30.4648 2.11047 26.2554V9.74485C2.11047 5.53518 5.53518 2.11047 9.74486 2.11047H26.2554C30.4648 2.11047 33.8895 5.53518 33.8895 9.74485V26.2554Z" fill="#FFCA41"/>
<path d="M18.0002 8.15649C12.5724 8.15649 8.15674 12.5722 8.15674 18C8.15674 23.4277 12.5724 27.8434 18.0002 27.8434C23.428 27.8434 27.8436 23.4277 27.8436 18C27.8436 12.5722 23.428 8.15649 18.0002 8.15649V8.15649ZM18.0002 25.7329C13.7364 25.7329 10.2672 22.264 10.2672 18C10.2672 13.7362 13.7364 10.267 18.0002 10.267C22.2643 10.267 25.7332 13.7362 25.7332 18C25.7332 22.264 22.2643 25.7329 18.0002 25.7329V25.7329Z" fill="#FFCA41"/>
<path d="M28.0785 4.66064C26.4745 4.66064 25.1699 5.96554 25.1699 7.56927C25.1699 9.17327 26.4745 10.4782 28.0785 10.4782C29.6825 10.4782 30.9874 9.17327 30.9874 7.56927C30.9874 5.96527 29.6825 4.66064 28.0785 4.66064ZM28.0785 8.36742C27.6385 8.36742 27.2804 8.00927 27.2804 7.56927C27.2804 7.12899 27.6385 6.77111 28.0785 6.77111C28.5188 6.77111 28.877 7.12899 28.877 7.56927C28.877 8.00927 28.5188 8.36742 28.0785 8.36742Z" fill="#FFCA41"/>
</svg>
