<svg width="36" height="36" viewBox="0 0 36 36" fill="none" xmlns="http://www.w3.org/2000/svg">
<path d="M26.2551 0H9.74486C4.37145 0 0 4.37145 0 9.74485V26.2554C0 31.6285 4.37145 35.9999 9.74486 35.9999H26.2554C31.6285 35.9999 35.9999 31.6285 35.9999 26.2554V9.74485C35.9999 4.37145 31.6285 0 26.2551 0V0ZM33.8895 26.2554C33.8895 30.4648 30.4648 33.8895 26.2551 33.8895H9.74486C5.53518 33.8895 2.11047 30.4648 2.11047 26.2554V9.74485C2.11047 5.53518 5.53518 2.11047 9.74486 2.11047H26.2554C30.4648 2.11047 33.8895 5.53518 33.8895 9.74485V26.2554Z" fill="#FCFFFC"/>
<path d="M17.9997 8.15625C12.5719 8.15625 8.15625 12.5719 8.15625 17.9997C8.15625 23.4275 12.5719 27.8432 17.9997 27.8432C23.4275 27.8432 27.8432 23.4275 27.8432 17.9997C27.8432 12.5719 23.4275 8.15625 17.9997 8.15625ZM17.9997 25.7327C13.7359 25.7327 10.2667 22.2638 10.2667 17.9997C10.2667 13.7359 13.7359 10.2667 17.9997 10.2667C22.2638 10.2667 25.7327 13.7359 25.7327 17.9997C25.7327 22.2638 22.2638 25.7327 17.9997 25.7327Z" fill="#FCFFFC"/>
<path d="M28.0785 4.66064C26.4745 4.66064 25.1699 5.96554 25.1699 7.56927C25.1699 9.17327 26.4745 10.4782 28.0785 10.4782C29.6825 10.4782 30.9874 9.17327 30.9874 7.56927C30.9874 5.96527 29.6825 4.66064 28.0785 4.66064ZM28.0785 8.36742C27.6385 8.36742 27.2804 8.00927 27.2804 7.56927C27.2804 7.12899 27.6385 6.77111 28.0785 6.77111C28.5188 6.77111 28.877 7.12899 28.877 7.56927C28.877 8.00927 28.5188 8.36742 28.0785 8.36742Z" fill="#FCFFFC"/>
</svg>
