<svg width="36" height="37" viewBox="0 0 36 37" fill="none" xmlns="http://www.w3.org/2000/svg">
<g clip-path="url(#clip0_1130_2821)">
<path d="M34.6606 6.53709L34.659 6.53271C34.2263 5.36137 33.5617 4.31559 32.6928 3.44709L32.6859 3.44026L32.686 3.44019C31.8357 2.55678 30.807 1.87142 29.6808 1.43781L29.6765 1.43617L29.6765 1.43615C28.5863 1.00498 27.3332 0.698708 25.4708 0.614709L25.4691 0.614632C23.5541 0.521641 22.9519 0.5 18.0668 0.5C13.1818 0.5 12.5787 0.521632 10.6699 0.607403L34.6606 6.53709ZM34.6606 6.53709C35.0828 7.64752 35.383 8.93936 35.4652 10.8485M34.6606 6.53709L1.47481 30.3008M6.46051 1.43029L6.4605 1.43027C5.31873 1.87157 4.29787 2.54986 3.44884 3.43879L3.44216 3.44578L3.44209 3.44571C2.57858 4.31551 1.90738 5.3693 1.48185 6.52515L1.48038 6.52914L1.48036 6.52914C1.05773 7.64763 0.757664 8.93263 0.6754 10.8413L0.67533 10.8429C0.584388 12.8026 0.563232 13.4193 0.563232 18.4168C0.563232 23.414 0.58438 24.0316 0.668258 25.985L6.46051 1.43029ZM6.46051 1.43029L6.46499 1.42851M6.46051 1.43029L6.46499 1.42851M6.46499 1.42851C7.54739 0.998101 8.80694 0.691432 10.6698 0.607407L6.46499 1.42851ZM1.47481 30.3008L1.47478 30.3008C1.90704 31.4708 2.57817 32.5176 3.44209 33.3878L3.44753 33.3933L3.44749 33.3933C4.29785 34.2768 5.32654 34.9621 6.45275 35.3957L6.45695 35.3973C7.54747 35.8286 8.80033 36.1348 10.663 36.2188C12.5715 36.3049 13.1748 36.3262 18.0599 36.3262C22.945 36.3262 23.548 36.3049 25.4568 36.2188C27.3197 36.1348 28.5793 35.8284 29.6616 35.3978L29.6625 35.3974C31.9484 34.4933 33.7597 32.6428 34.6463 30.2973C35.0687 29.1788 35.369 27.8934 35.4512 25.985C35.5351 24.0316 35.5563 23.414 35.5563 18.4168C35.5563 13.4164 35.5491 12.8005 35.4652 10.8485M1.47481 30.3008L1.47314 30.2964M1.47481 30.3008L1.47314 30.2964M35.4652 10.8485L35.9618 10.8272L35.4652 10.8486C35.4652 10.8485 35.4652 10.8485 35.4652 10.8485ZM1.47314 30.2964C1.051 29.186 0.750551 27.8941 0.668261 25.985L1.47314 30.2964ZM28.8701 33.2411C30.5716 32.5696 31.9176 31.1904 32.5715 29.4572M28.8701 33.2411C28.8699 33.2412 28.8697 33.2412 28.8695 33.2413L28.686 32.7762L28.8708 33.2408C28.8706 33.2409 28.8703 33.241 28.8701 33.2411ZM28.8701 33.2411C28.1869 33.5128 27.1759 33.827 25.368 33.9085L25.3455 33.409L32.5715 29.4572M32.5715 29.4572C32.836 28.7611 33.1426 27.7373 33.2224 25.8841M32.5715 29.4572L33.2224 10.971C33.3072 12.9239 33.3284 13.5148 33.3284 18.4311C33.3284 23.3473 33.3072 23.9313 33.2224 25.8841M33.2224 25.8841C33.2224 25.8842 33.2224 25.8842 33.2224 25.8843L32.7229 25.8626L33.2224 25.8841ZM3.58184 7.40159C3.31756 8.09756 3.01191 9.12103 2.93249 10.971L3.58184 7.40159ZM3.58184 7.40159C3.89368 6.53992 4.38811 5.75194 5.04559 5.10854C5.67779 4.44788 6.44039 3.94078 7.28788 3.62008C7.97099 3.34867 8.98183 3.03534 10.7864 2.95366L3.58184 7.40159ZM7.28054 33.2423C7.96336 33.5136 8.96708 33.8271 10.7791 33.9085L2.9325 25.8917C3.01192 27.734 3.31749 28.7647 3.58186 29.4609C3.89442 30.3243 4.38899 31.1032 5.03537 31.7505C5.66332 32.4147 6.43473 32.9218 7.28054 33.2423ZM2.82654 18.4311C2.82654 23.3472 2.84742 23.9385 2.93249 25.8914L2.93248 10.9711C2.84742 12.9167 2.82654 13.5152 2.82654 18.4311ZM18.0808 2.84523C13.2749 2.84523 12.6964 2.86688 10.7865 2.95365L33.2224 10.9709C33.1428 9.12828 32.8372 8.09786 32.5728 7.40164C32.2603 6.53798 31.7657 5.75898 31.1193 5.11169C30.4913 4.44746 29.7199 3.9403 28.874 3.62009C28.1911 3.34879 27.1874 3.03536 25.3754 2.95366C23.4723 2.86688 22.8941 2.84523 18.0808 2.84523Z" fill="#FCFFFC" stroke="#FCFFFC"/>
<path d="M9.31885 18.4172C9.31885 13.4596 13.248 9.45703 18.0667 9.45703C22.8858 9.45703 26.8146 13.4596 26.8146 18.4172C26.8146 23.3748 22.8858 27.3774 18.0667 27.3774C13.248 27.3774 9.31885 23.3748 9.31885 18.4172ZM11.5679 18.4172C11.5679 22.0711 14.4678 25.0538 18.0667 25.0538C21.666 25.0538 24.5656 22.0711 24.5656 18.4172C24.5656 14.7633 21.666 11.7806 18.0667 11.7806C14.4678 11.7806 11.5679 14.7633 11.5679 18.4172Z" fill="#FCFFFC" stroke="#FCFFFC"/>
<path d="M29.8394 8.58254C29.8394 9.80216 28.8727 10.7911 27.6802 10.7911C26.488 10.7911 25.5212 9.80216 25.5212 8.58254C25.5212 7.36264 26.488 6.37402 27.6802 6.37402C28.8727 6.37402 29.8394 7.36264 29.8394 8.58254V8.58254Z" fill="#FCFFFC"/>
</g>
<defs>
<clipPath id="clip0_1130_2821">
<rect width="36" height="36.8263" fill="white"/>
</clipPath>
</defs>
</svg>
