<svg width="150" height="110" viewBox="0 0 150 110" fill="none" xmlns="http://www.w3.org/2000/svg">
<path d="M84.3651 0.023069C84.2 0.0386307 83.6872 0.0930967 83.2352 0.139782C78.9417 0.567729 74.5351 2.26396 70.6587 4.9717C69.3897 5.85872 67.947 7.04141 67.2777 7.74168C64.2531 10.9007 62.4018 16.0361 62.8016 20.1521C63.0711 22.9455 63.8098 24.5094 65.9653 26.8592C67.4342 28.4543 69.0334 29.3569 71.2671 29.8627C72.284 30.0961 74.5438 30.1505 75.6737 29.9794C77.7422 29.6604 79.5588 28.9134 80.9059 27.8396C81.7664 27.1549 82.5486 26.0034 82.8441 24.9918C83.0006 24.4472 83.0267 23.1322 82.8876 22.572C82.4704 20.8524 81.7838 19.9109 80.5409 19.3507C78.0464 18.2225 74.9523 18.8761 73.3704 20.868C72.6751 21.7394 71.8668 23.5991 72.0928 23.8014C72.2319 23.9259 72.9272 23.9648 73.2574 23.8714C73.6225 23.7625 73.9093 23.4979 74.396 22.8443C75.0392 21.9729 75.6215 21.7939 76.3864 22.2219C76.6297 22.3619 76.8818 22.5953 77.0382 22.8288C77.2555 23.1633 77.2816 23.2723 77.2816 23.9025C77.2816 24.5172 77.2468 24.6573 77.0295 25.0385C76.2386 26.4546 75.0827 27.1394 73.5008 27.1549C71.0759 27.1705 67.9122 25.2953 66.6954 23.1244C66.087 22.0351 65.8958 21.2337 65.9045 19.8176C65.9132 18.0902 66.3564 16.5029 67.3386 14.7055C69.0769 11.5154 71.8929 9.24339 75.7432 7.91286C79.2632 6.69127 83.6003 6.45784 87.3811 7.29039C91.6573 8.2241 95.1252 10.3638 97.1242 13.2972C99.5491 16.8453 100.479 21.7083 99.6969 26.7814C98.8017 32.5548 95.751 38.9196 91.4226 44.0549C90.988 44.5685 90.4752 45.1443 90.2753 45.3388L89.919 45.6889L90.145 45.2765C92.2831 41.3394 93.0827 37.4334 92.6481 32.9828L92.596 32.4226H72.284H51.9634L51.9025 33.2551C51.7982 34.5934 51.833 36.7332 51.9807 37.8536C52.5022 41.8141 54.1884 45.5955 56.7437 48.5134C56.9783 48.7857 57.1609 49.0191 57.1435 49.0269C57.1261 49.0425 56.4916 48.809 55.7268 48.5134C52.5022 47.2684 47.7045 45.6267 45.8793 45.1443L45.3405 45.0042L45.3579 34.6012L45.3839 24.206L45.6881 23.7625C45.8533 23.5213 46.2878 22.9766 46.6703 22.5642C48.0174 21.0547 48.5563 19.553 48.5563 17.281C48.5563 16.7908 48.2782 13.554 47.9479 10.0915C47.6089 6.62902 47.3395 3.75788 47.3395 3.7112C47.3395 3.67229 47.2439 3.63339 47.1222 3.63339C46.9136 3.63339 46.9049 3.64895 46.8962 4.15471C46.8962 4.45038 46.8267 7.29817 46.7398 10.4883C46.6268 15.0557 46.566 16.324 46.479 16.4251C46.2965 16.6196 45.8706 16.5885 45.7837 16.3707C45.7403 16.2773 45.6012 13.484 45.4708 10.1693C45.3492 6.85466 45.2275 4.02243 45.2014 3.88238C45.1753 3.73454 45.1058 3.63339 45.0363 3.63339C44.932 3.63339 44.9059 3.75788 44.9059 4.19361C44.9059 4.50485 44.8451 7.14256 44.7755 10.0526C44.706 12.9626 44.6452 15.5614 44.6452 15.826C44.6452 16.2073 44.6104 16.3473 44.4713 16.4718C44.2453 16.6741 43.8455 16.6741 43.6369 16.464C43.4805 16.3084 43.4631 15.9738 43.3327 9.99035C43.2545 6.51231 43.185 3.66451 43.1763 3.64895C43.1676 3.64117 43.1068 3.63339 43.0372 3.63339C42.959 3.63339 42.9069 3.70342 42.9069 3.80457C42.9069 3.90572 42.7939 6.76129 42.6461 10.1615C42.4723 14.3788 42.3593 16.3707 42.2898 16.4407C42.1681 16.5807 41.7422 16.5807 41.6205 16.4485C41.5597 16.3862 41.4815 14.2543 41.3859 10.2471C41.3076 6.88579 41.2294 4.02243 41.2033 3.88238C41.1512 3.57892 40.847 3.52446 40.7861 3.80457C40.7601 3.90572 40.4646 6.90913 40.1256 10.4805C39.6128 15.8182 39.5085 17.1254 39.5606 17.7945C39.7084 19.9343 40.2212 21.2415 41.4032 22.502C42.1246 23.2801 42.4114 23.6224 42.6722 24.027L42.9069 24.3849V34.3833V44.3817L42.4549 44.2728C41.7509 44.1094 39.5867 43.7281 38.4742 43.5725C37.7094 43.4636 36.9445 43.4325 35.1715 43.4325C33.0942 43.4325 32.7726 43.448 31.9122 43.6114C28.5312 44.2495 25.5326 45.4866 23.0034 47.284C22.0908 47.9376 20.4394 49.4549 19.7528 50.2641C18.6316 51.6102 17.7016 53.1352 17.0063 54.7692C16.6673 55.5628 16.6673 55.5706 16.8325 55.7029C17.267 56.0219 18.171 55.9363 18.7098 55.5161C18.875 55.3839 19.353 54.7614 19.7615 54.1389C21.4129 51.6257 21.9778 50.9254 23.2728 49.8128C25.8281 47.6108 29.6958 46.3503 33.9547 46.3425C36.284 46.3347 38.4655 46.6849 41.8813 47.603C42.6809 47.8131 42.6374 47.6575 42.3854 49.3926C42.1246 51.1355 41.7509 52.715 41.1686 54.5202C40.1517 57.6948 39.9431 58.6752 39.9431 60.2002C39.9431 61.8031 40.3168 62.7757 41.2642 63.6316C41.8204 64.1295 42.733 64.5731 43.4892 64.7131C44.5669 64.9154 45.8446 64.4952 46.8267 63.6238C47.7306 62.8224 48.087 62.0132 48.1826 60.5893C48.2695 59.1965 48.0001 57.8037 47.1048 55.0415C46.4877 53.1196 46.1748 51.8747 45.9489 50.4741C45.6881 48.8324 45.6881 48.8402 45.7837 48.8402C45.9141 48.8402 49.5298 50.1551 52.1633 51.1589C60.6374 54.3801 64.7659 55.5473 69.4158 56.0297C73.6312 56.4732 79.0373 56.0841 83.974 54.987C93.2391 52.9329 100.549 48.5523 105.12 42.3198C107.458 39.1297 109.075 35.3559 109.875 31.2554C111.43 23.1945 110.014 15.1257 106.155 10.0137C104.434 7.72612 102.104 5.5786 99.6621 4.02243C96.455 1.97607 92.9436 0.700003 89.0585 0.170905C88.1894 0.0541924 85.0257 -0.0469587 84.3651 0.023069ZM89.8147 36.064C89.3888 44.3817 83.5481 51.1822 75.5085 52.7073C71.9885 53.3686 68.0513 52.8629 64.818 51.3223C59.6988 48.8791 56.0657 44.1016 55.0315 38.4372C54.8663 37.5579 54.6751 35.2937 54.7533 35.1225C54.8055 34.998 56.0049 34.9902 72.3362 34.9902H89.8668L89.8147 36.064Z" fill="#FCFFFC"/>
<path d="M119.113 3.5957C118.105 3.92249 117.888 4.15592 116.88 5.92995C114.681 9.80482 113.62 14.4811 113.308 21.6862C113.212 24.0049 113.195 29.0313 113.281 30.1985C113.334 30.9299 113.351 30.9765 113.62 31.2177C113.907 31.4823 114.185 31.5912 115.307 31.8869C116.115 32.1048 116.576 32.4782 116.88 33.163L117.088 33.6298L117.062 39.1542C117.045 43.955 117.019 44.9198 116.862 46.5071C116.515 50.1252 116.132 52.1716 115.35 54.5992C114.351 57.7193 114.185 58.4508 114.116 59.9291C114.012 62.3023 114.759 63.6484 116.645 64.4887C117.393 64.8155 117.453 64.8311 118.218 64.8311C118.974 64.8311 119.044 64.8155 119.757 64.5043C120.999 63.9518 121.773 63.1115 122.138 61.9132C122.26 61.532 122.295 61.1274 122.295 60.2403C122.295 58.6608 122.112 57.8438 121.008 54.4358C120.252 52.0782 119.852 49.9074 119.47 46.0403C119.296 44.3285 119.444 33.6065 119.826 19.2352C120.235 4.24151 120.226 4.47493 120.096 4.05477C119.948 3.55679 119.652 3.42452 119.113 3.5957Z" fill="#FCFFFC"/>
<path d="M25.0693 95.5642C25.0693 96.2602 24.9313 96.8482 24.6553 97.3282C24.3793 97.7962 24.0133 98.1742 23.5573 98.4622C23.1013 98.7502 22.5793 98.9602 21.9913 99.0922C21.4153 99.2122 20.8213 99.2722 20.2093 99.2722H15.1333V86.5282H20.2093C20.7013 86.5282 21.2053 86.5822 21.7213 86.6902C22.2373 86.7862 22.7053 86.9602 23.1253 87.2122C23.5453 87.4522 23.8873 87.7822 24.1513 88.2022C24.4153 88.6222 24.5473 89.1562 24.5473 89.8042C24.5473 90.5122 24.3553 91.1002 23.9713 91.5682C23.5873 92.0242 23.0833 92.3542 22.4593 92.5582V92.5942C22.8193 92.6542 23.1553 92.7682 23.4673 92.9362C23.7913 93.0922 24.0673 93.2962 24.2953 93.5482C24.5353 93.8002 24.7213 94.0942 24.8533 94.4302C24.9973 94.7662 25.0693 95.1442 25.0693 95.5642ZM21.5773 90.2182C21.5773 89.7862 21.4093 89.4742 21.0733 89.2822C20.7493 89.0782 20.2633 88.9762 19.6153 88.9762H18.1033V91.6042H19.7593C20.3353 91.6042 20.7793 91.4902 21.0913 91.2622C21.4153 91.0222 21.5773 90.6742 21.5773 90.2182ZM21.9913 95.2762C21.9913 94.7482 21.7933 94.3822 21.3973 94.1782C21.0013 93.9742 20.4733 93.8722 19.8133 93.8722H18.1033V96.7882H19.8313C20.0713 96.7882 20.3173 96.7702 20.5693 96.7342C20.8333 96.6862 21.0673 96.6082 21.2713 96.5002C21.4873 96.3922 21.6613 96.2422 21.7933 96.0502C21.9253 95.8462 21.9913 95.5882 21.9913 95.2762ZM40.388 92.8462C40.388 93.8542 40.214 94.7782 39.866 95.6182C39.518 96.4462 39.032 97.1602 38.408 97.7602C37.796 98.3482 37.064 98.8042 36.212 99.1282C35.36 99.4522 34.436 99.6142 33.44 99.6142C32.444 99.6142 31.52 99.4522 30.668 99.1282C29.828 98.8042 29.096 98.3482 28.472 97.7602C27.86 97.1602 27.38 96.4462 27.032 95.6182C26.684 94.7782 26.51 93.8542 26.51 92.8462C26.51 91.8262 26.684 90.9082 27.032 90.0922C27.38 89.2642 27.86 88.5622 28.472 87.9862C29.096 87.4102 29.828 86.9662 30.668 86.6542C31.52 86.3422 32.444 86.1862 33.44 86.1862C34.436 86.1862 35.36 86.3422 36.212 86.6542C37.064 86.9662 37.796 87.4102 38.408 87.9862C39.032 88.5622 39.518 89.2642 39.866 90.0922C40.214 90.9082 40.388 91.8262 40.388 92.8462ZM37.094 92.8462C37.094 92.2942 37.004 91.7782 36.824 91.2982C36.644 90.8182 36.392 90.4102 36.068 90.0742C35.756 89.7262 35.372 89.4562 34.916 89.2642C34.472 89.0602 33.98 88.9582 33.44 88.9582C32.9 88.9582 32.408 89.0602 31.964 89.2642C31.52 89.4562 31.136 89.7262 30.812 90.0742C30.488 90.4102 30.236 90.8182 30.056 91.2982C29.888 91.7782 29.804 92.2942 29.804 92.8462C29.804 93.4222 29.894 93.9562 30.074 94.4482C30.254 94.9282 30.5 95.3422 30.812 95.6902C31.136 96.0382 31.52 96.3142 31.964 96.5182C32.408 96.7102 32.9 96.8062 33.44 96.8062C33.98 96.8062 34.472 96.7102 34.916 96.5182C35.36 96.3142 35.744 96.0382 36.068 95.6902C36.392 95.3422 36.644 94.9282 36.824 94.4482C37.004 93.9562 37.094 93.4222 37.094 92.8462ZM44.1426 99.2722H40.8486L45.7986 86.5282H48.9486L54.0066 99.2722H50.6406L47.4006 90.7762L44.1426 99.2722ZM63.0988 86.5282V89.2102H58.1668V99.2722H55.0708V86.5282H63.0988ZM66.7317 99.2722H63.3837L68.7297 86.5282H71.7177L77.0097 99.2722H73.5897L72.5997 96.7702H67.6677L66.7317 99.2722ZM68.5497 94.3042H71.7537L70.1697 89.9302L68.5497 94.3042ZM85.605 89.1562V91.7842H90.537V94.3222H85.605V99.2722H82.563V86.5282H90.951V89.1562H85.605ZM106.218 92.8462C106.218 93.8542 106.044 94.7782 105.696 95.6182C105.348 96.4462 104.862 97.1602 104.238 97.7602C103.626 98.3482 102.894 98.8042 102.042 99.1282C101.19 99.4522 100.266 99.6142 99.2701 99.6142C98.2741 99.6142 97.3501 99.4522 96.4981 99.1282C95.6581 98.8042 94.9261 98.3482 94.3021 97.7602C93.6901 97.1602 93.2101 96.4462 92.8621 95.6182C92.5141 94.7782 92.3401 93.8542 92.3401 92.8462C92.3401 91.8262 92.5141 90.9082 92.8621 90.0922C93.2101 89.2642 93.6901 88.5622 94.3021 87.9862C94.9261 87.4102 95.6581 86.9662 96.4981 86.6542C97.3501 86.3422 98.2741 86.1862 99.2701 86.1862C100.266 86.1862 101.19 86.3422 102.042 86.6542C102.894 86.9662 103.626 87.4102 104.238 87.9862C104.862 88.5622 105.348 89.2642 105.696 90.0922C106.044 90.9082 106.218 91.8262 106.218 92.8462ZM102.924 92.8462C102.924 92.2942 102.834 91.7782 102.654 91.2982C102.474 90.8182 102.222 90.4102 101.898 90.0742C101.586 89.7262 101.202 89.4562 100.746 89.2642C100.302 89.0602 99.8101 88.9582 99.2701 88.9582C98.7301 88.9582 98.2381 89.0602 97.7941 89.2642C97.3501 89.4562 96.9661 89.7262 96.6421 90.0742C96.3181 90.4102 96.0661 90.8182 95.8861 91.2982C95.7181 91.7782 95.6341 92.2942 95.6341 92.8462C95.6341 93.4222 95.7241 93.9562 95.9041 94.4482C96.0841 94.9282 96.3301 95.3422 96.6421 95.6902C96.9661 96.0382 97.3501 96.3142 97.7941 96.5182C98.2381 96.7102 98.7301 96.8062 99.2701 96.8062C99.8101 96.8062 100.302 96.7102 100.746 96.5182C101.19 96.3142 101.574 96.0382 101.898 95.6902C102.222 95.3422 102.474 94.9282 102.654 94.4482C102.834 93.9562 102.924 93.4222 102.924 92.8462ZM121.529 92.8462C121.529 93.8542 121.355 94.7782 121.007 95.6182C120.659 96.4462 120.173 97.1602 119.549 97.7602C118.937 98.3482 118.205 98.8042 117.353 99.1282C116.501 99.4522 115.577 99.6142 114.581 99.6142C113.585 99.6142 112.661 99.4522 111.809 99.1282C110.969 98.8042 110.237 98.3482 109.613 97.7602C109.001 97.1602 108.521 96.4462 108.173 95.6182C107.825 94.7782 107.651 93.8542 107.651 92.8462C107.651 91.8262 107.825 90.9082 108.173 90.0922C108.521 89.2642 109.001 88.5622 109.613 87.9862C110.237 87.4102 110.969 86.9662 111.809 86.6542C112.661 86.3422 113.585 86.1862 114.581 86.1862C115.577 86.1862 116.501 86.3422 117.353 86.6542C118.205 86.9662 118.937 87.4102 119.549 87.9862C120.173 88.5622 120.659 89.2642 121.007 90.0922C121.355 90.9082 121.529 91.8262 121.529 92.8462ZM118.235 92.8462C118.235 92.2942 118.145 91.7782 117.965 91.2982C117.785 90.8182 117.533 90.4102 117.209 90.0742C116.897 89.7262 116.513 89.4562 116.057 89.2642C115.613 89.0602 115.121 88.9582 114.581 88.9582C114.041 88.9582 113.549 89.0602 113.105 89.2642C112.661 89.4562 112.277 89.7262 111.953 90.0742C111.629 90.4102 111.377 90.8182 111.197 91.2982C111.029 91.7782 110.945 92.2942 110.945 92.8462C110.945 93.4222 111.035 93.9562 111.215 94.4482C111.395 94.9282 111.641 95.3422 111.953 95.6902C112.277 96.0382 112.661 96.3142 113.105 96.5182C113.549 96.7102 114.041 96.8062 114.581 96.8062C115.121 96.8062 115.613 96.7102 116.057 96.5182C116.501 96.3142 116.885 96.0382 117.209 95.6902C117.533 95.3422 117.785 94.9282 117.965 94.4482C118.145 93.9562 118.235 93.4222 118.235 92.8462ZM135.453 92.8642C135.453 93.9802 135.243 94.9462 134.823 95.7622C134.415 96.5662 133.869 97.2322 133.185 97.7602C132.513 98.2762 131.751 98.6602 130.899 98.9122C130.047 99.1522 129.183 99.2722 128.307 99.2722H123.555V86.5282H128.163C129.063 86.5282 129.951 86.6362 130.827 86.8522C131.703 87.0562 132.483 87.4042 133.167 87.8962C133.851 88.3762 134.403 89.0242 134.823 89.8402C135.243 90.6562 135.453 91.6642 135.453 92.8642ZM132.249 92.8642C132.249 92.1442 132.129 91.5502 131.889 91.0822C131.661 90.6022 131.349 90.2242 130.953 89.9482C130.569 89.6602 130.125 89.4562 129.621 89.3362C129.129 89.2162 128.619 89.1562 128.091 89.1562H126.561V96.6082H128.019C128.571 96.6082 129.099 96.5482 129.603 96.4282C130.119 96.2962 130.569 96.0862 130.953 95.7982C131.349 95.5102 131.661 95.1262 131.889 94.6462C132.129 94.1662 132.249 93.5722 132.249 92.8642Z" fill="#FCFFFC"/>
</svg>
