<svg width="94" height="54" viewBox="0 0 94 54" fill="none" xmlns="http://www.w3.org/2000/svg">
<path d="M52.2753 0.012437C52.1734 0.0208851 51.8572 0.0504532 51.5785 0.0757973C48.9306 0.308118 46.2131 1.22896 43.8226 2.69891C43.04 3.18045 42.1503 3.8225 41.7376 4.20266C39.8723 5.91761 38.7306 8.70546 38.9772 10.94C39.1433 12.4564 39.5989 13.3054 40.9282 14.5811C41.834 15.447 42.8203 15.937 44.1978 16.2115C44.8249 16.3383 46.2185 16.3678 46.9153 16.2749C48.191 16.1017 49.3112 15.6962 50.142 15.1133C50.6726 14.7416 51.155 14.1164 51.3373 13.5673C51.4338 13.2716 51.4498 12.5578 51.3641 12.2536C51.1068 11.3201 50.6834 10.809 49.9169 10.5049C48.3786 9.89241 46.4704 10.2472 45.4949 11.3286C45.0661 11.8017 44.5676 12.8112 44.707 12.921C44.7927 12.9886 45.2215 13.0097 45.4252 12.959C45.6503 12.8999 45.8272 12.7563 46.1274 12.4015C46.524 11.9284 46.8831 11.8312 47.3548 12.0636C47.5049 12.1396 47.6603 12.2663 47.7568 12.393C47.8908 12.5747 47.9069 12.6338 47.9069 12.9759C47.9069 13.3096 47.8855 13.3857 47.7515 13.5926C47.2637 14.3614 46.5508 14.7331 45.5753 14.7416C44.0799 14.75 42.1288 13.732 41.3784 12.5535C41.0032 11.9622 40.8853 11.5271 40.8907 10.7583C40.896 9.8206 41.1694 8.9589 41.7751 7.98316C42.8471 6.25131 44.5837 5.0179 46.9582 4.29559C49.129 3.63242 51.8036 3.5057 54.1352 3.95767C56.7723 4.46455 58.9109 5.62615 60.1437 7.21861C61.6391 9.14476 62.2127 11.7848 61.7303 14.5388C61.1782 17.673 59.2968 21.1283 56.6276 23.9161C56.3596 24.1949 56.0433 24.5075 55.9201 24.6131L55.7003 24.8032L55.8397 24.5793C57.1582 22.442 57.6513 20.3215 57.3833 17.9054L57.3512 17.6012H44.8249H32.2933L32.2558 18.0532C32.1915 18.7797 32.2129 19.9413 32.304 20.5496C32.6256 22.6996 33.6654 24.7525 35.2413 26.3365C35.386 26.4843 35.4986 26.6111 35.4878 26.6153C35.4771 26.6237 35.0858 26.497 34.6142 26.3365C32.6256 25.6607 29.6669 24.7694 28.5413 24.5075L28.209 24.4315L28.2197 18.784L28.2358 13.1407L28.4234 12.8999C28.5252 12.769 28.7932 12.4733 29.0291 12.2494C29.8599 11.43 30.1922 10.6147 30.1922 9.3813C30.1922 9.11519 30.0207 7.358 29.817 5.47831C29.6079 3.59863 29.4418 2.03997 29.4418 2.01462C29.4418 1.9935 29.3828 1.97238 29.3078 1.97238C29.1791 1.97238 29.1738 1.98083 29.1684 2.25539C29.1684 2.4159 29.1255 3.96189 29.0719 5.69374C29.0023 8.17324 28.9647 8.86175 28.9112 8.91666C28.7986 9.02226 28.536 9.00537 28.4824 8.88709C28.4556 8.83641 28.3698 7.31998 28.2894 5.52055C28.2144 3.72112 28.1393 2.18358 28.1232 2.10755C28.1072 2.02729 28.0643 1.97238 28.0214 1.97238C27.9571 1.97238 27.941 2.03997 27.941 2.27651C27.941 2.44547 27.9035 3.87741 27.8606 5.45719C27.8177 7.03698 27.7802 8.4478 27.7802 8.59141C27.7802 8.79839 27.7588 8.87442 27.673 8.94201C27.5336 9.05183 27.2871 9.05183 27.1584 8.93778C27.062 8.8533 27.0512 8.67167 26.9708 5.4234C26.9226 3.53527 26.8797 1.98928 26.8744 1.98083C26.869 1.97661 26.8315 1.97238 26.7886 1.97238C26.7404 1.97238 26.7082 2.0104 26.7082 2.06531C26.7082 2.12022 26.6385 3.67044 26.5474 5.51633C26.4402 7.80575 26.3705 8.88709 26.3276 8.92511C26.2526 9.00114 25.99 9.00114 25.9149 8.92933C25.8774 8.89554 25.8292 7.73816 25.7702 5.56279C25.722 3.73802 25.6737 2.18358 25.6576 2.10755C25.6255 1.94281 25.4379 1.91325 25.4004 2.06531C25.3843 2.12022 25.202 3.75069 24.993 5.68952C24.6768 8.58719 24.6125 9.29682 24.6446 9.66009C24.7357 10.8217 25.052 11.5313 25.7809 12.2156C26.2258 12.638 26.4027 12.8239 26.5635 13.0435L26.7082 13.2378V18.6657V24.0935L26.4295 24.0344C25.9953 23.9457 24.6607 23.7387 23.9746 23.6542C23.5029 23.5951 23.0313 23.5782 21.9378 23.5782C20.6568 23.5782 20.4585 23.5867 19.9278 23.6754C17.8428 24.0217 15.9936 24.6934 14.4339 25.6691C13.8711 26.0239 12.8527 26.8476 12.4292 27.2869C11.7378 28.0177 11.1643 28.8456 10.7355 29.7326C10.5264 30.1635 10.5264 30.1677 10.6283 30.2395C10.8963 30.4127 11.4537 30.3662 11.786 30.1381C11.8879 30.0663 12.1827 29.7284 12.4346 29.3905C13.453 28.0261 13.8014 27.6459 14.6 27.0419C16.1759 25.8465 18.561 25.1622 21.1874 25.158C22.6239 25.1538 23.9693 25.3439 26.0757 25.8423C26.5688 25.9563 26.542 25.8719 26.3866 26.8138C26.2258 27.76 25.9953 28.6175 25.6362 29.5974C25.0091 31.3208 24.8805 31.8531 24.8805 32.681C24.8805 33.5511 25.1109 34.0791 25.6952 34.5438C26.0382 34.8141 26.601 35.0549 27.0673 35.1309C27.732 35.2407 28.5199 35.0126 29.1255 34.5395C29.683 34.1045 29.9027 33.6652 29.9617 32.8922C30.0153 32.1361 29.8491 31.38 29.2971 29.8804C28.9165 28.8371 28.7236 28.1613 28.5842 27.401C28.4234 26.5097 28.4234 26.5139 28.4824 26.5139C28.5628 26.5139 30.7925 27.2278 32.4166 27.7727C37.6425 29.5214 40.1885 30.155 43.0561 30.4169C45.6557 30.6577 48.9896 30.4465 52.0341 29.8509C57.7478 28.7357 62.2555 26.3576 65.0749 22.9742C66.5167 21.2423 67.5137 19.1937 68.0068 16.9676C68.9662 12.5916 68.0925 8.21125 65.7127 5.43607C64.6514 4.19421 63.215 3.02839 61.7088 2.18358C59.731 1.07267 57.5656 0.379926 55.1697 0.0926933C54.6337 0.0293331 52.6826 -0.0255791 52.2753 0.012437ZM55.636 19.5781C55.3733 24.0935 51.7714 27.7853 46.8135 28.6132C44.6427 28.9723 42.2146 28.6977 40.2207 27.8614C37.0637 26.535 34.8232 23.9415 34.1854 20.8664C34.0835 20.3891 33.9656 19.1599 34.0138 19.067C34.046 18.9994 34.7857 18.9952 44.8571 18.9952H55.6681L55.636 19.5781Z" fill="#362C27"/>
<path d="M73.7043 1.95035C73.0825 2.12776 72.9485 2.25448 72.3268 3.21756C70.9707 5.32112 70.3168 7.85975 70.1238 11.7712C70.0649 13.0299 70.0542 15.7587 70.1078 16.3923C70.1399 16.7893 70.1506 16.8147 70.3168 16.9456C70.4937 17.0892 70.6652 17.1484 71.3566 17.3089C71.8551 17.4271 72.1392 17.6299 72.3268 18.0016L72.4554 18.2551L72.4393 21.2541C72.4286 23.8603 72.4125 24.3841 72.3161 25.2458C72.1017 27.21 71.8658 28.3209 71.3834 29.6388C70.767 31.3326 70.6652 31.7297 70.6223 32.5322C70.558 33.8206 71.019 34.5513 72.1821 35.0075C72.643 35.1849 72.6805 35.1934 73.1522 35.1934C73.6185 35.1934 73.6614 35.1849 74.1009 35.016C74.8674 34.716 75.3444 34.2599 75.5696 33.6094C75.6446 33.4024 75.666 33.1827 75.666 32.7012C75.666 31.8437 75.5535 31.4002 74.8728 29.5501C74.4064 28.2702 74.1599 27.0917 73.924 24.9924C73.8168 24.0631 73.908 18.2424 74.1438 10.4406C74.3957 2.30095 74.3904 2.42767 74.31 2.19957C74.2188 1.92923 74.0366 1.85743 73.7043 1.95035Z" fill="#362C27"/>
<path d="M4.43929 39.004C5.77396 39.004 6.78196 39.1907 7.46329 39.564C8.14462 39.9373 8.48529 40.5953 8.48529 41.538C8.48529 42.1073 8.34996 42.588 8.07929 42.98C7.81796 43.372 7.43996 43.61 6.94529 43.694V43.764C7.28129 43.8293 7.58462 43.946 7.85529 44.114C8.12596 44.282 8.34062 44.5247 8.49929 44.842C8.65796 45.1593 8.73729 45.5793 8.73729 46.102C8.73729 47.0073 8.41062 47.7167 7.75729 48.23C7.10396 48.7433 6.20796 49 5.06929 49H1.33129V39.004H4.43929ZM4.67729 42.966C5.29329 42.966 5.71796 42.868 5.95129 42.672C6.19396 42.476 6.31529 42.1913 6.31529 41.818C6.31529 41.4353 6.17529 41.16 5.89529 40.992C5.61529 40.824 5.17196 40.74 4.56529 40.74H3.44529V42.966H4.67729ZM3.44529 44.646V47.25H4.83129C5.46596 47.25 5.90929 47.1287 6.16129 46.886C6.41329 46.634 6.53929 46.3027 6.53929 45.892C6.53929 45.5187 6.40862 45.22 6.14729 44.996C5.89529 44.7627 5.43329 44.646 4.76129 44.646H3.44529ZM19.8095 43.988C19.8095 45.024 19.6369 45.9293 19.2915 46.704C18.9555 47.4693 18.4375 48.0667 17.7375 48.496C17.0375 48.9253 16.1415 49.14 15.0495 49.14C13.9669 49.14 13.0709 48.9253 12.3615 48.496C11.6615 48.0667 11.1389 47.4647 10.7935 46.69C10.4575 45.9153 10.2895 45.01 10.2895 43.974C10.2895 42.938 10.4575 42.0373 10.7935 41.272C11.1389 40.5067 11.6615 39.914 12.3615 39.494C13.0709 39.0647 13.9715 38.85 15.0635 38.85C16.1462 38.85 17.0375 39.0647 17.7375 39.494C18.4375 39.914 18.9555 40.5113 19.2915 41.286C19.6369 42.0513 19.8095 42.952 19.8095 43.988ZM12.5155 43.988C12.5155 45.0333 12.7162 45.8593 13.1175 46.466C13.5189 47.0633 14.1629 47.362 15.0495 47.362C15.9549 47.362 16.6035 47.0633 16.9955 46.466C17.3875 45.8593 17.5835 45.0333 17.5835 43.988C17.5835 42.9333 17.3875 42.1073 16.9955 41.51C16.6035 40.9127 15.9595 40.614 15.0635 40.614C14.1675 40.614 13.5189 40.9127 13.1175 41.51C12.7162 42.1073 12.5155 42.9333 12.5155 43.988ZM29.5167 49H27.4027V40.768H24.9527C24.8967 41.1973 24.836 41.664 24.7707 42.168C24.7147 42.672 24.6493 43.1853 24.5747 43.708C24.5093 44.2213 24.4393 44.7113 24.3647 45.178C24.29 45.6353 24.2153 46.0413 24.1407 46.396C24.0193 46.9747 23.856 47.4693 23.6507 47.88C23.4547 48.2907 23.1793 48.6033 22.8247 48.818C22.4793 49.0327 22.0267 49.14 21.4667 49.14C21.1027 49.14 20.7667 49.0887 20.4587 48.986V47.25C20.58 47.2873 20.6967 47.32 20.8087 47.348C20.93 47.376 21.0607 47.39 21.2007 47.39C21.4713 47.39 21.6767 47.25 21.8167 46.97C21.966 46.6807 22.1153 46.144 22.2647 45.36C22.3207 45.0613 22.4 44.5947 22.5027 43.96C22.6053 43.3253 22.7173 42.5833 22.8387 41.734C22.9693 40.8753 23.0907 39.9653 23.2027 39.004H29.5167V49ZM38.3523 39.004V40.754H34.1523V49H32.0383V39.004H38.3523ZM45.0196 49L44.2916 46.62H40.6516L39.9236 49H37.6416L41.1696 38.962H43.7596L47.3016 49H45.0196ZM43.0596 42.518C43.0129 42.3593 42.9523 42.1587 42.8776 41.916C42.8029 41.6733 42.7283 41.426 42.6536 41.174C42.5789 40.922 42.5183 40.7027 42.4716 40.516C42.4249 40.7027 42.3596 40.936 42.2756 41.216C42.2009 41.4867 42.1263 41.748 42.0516 42C41.9863 42.2427 41.9349 42.4153 41.8976 42.518L41.1836 44.842H43.7876L43.0596 42.518ZM54.9936 42.924H58.0176V45.64H55.0076V49H51.7316V39.088H58.4236V41.874H54.9936V42.924ZM59.4184 43.988C59.4184 43.1947 59.5584 42.4807 59.8384 41.846C60.1184 41.202 60.501 40.656 60.9864 40.208C61.481 39.76 62.0644 39.4147 62.7364 39.172C63.4084 38.9293 64.1364 38.808 64.9204 38.808C65.7044 38.808 66.4324 38.9293 67.1044 39.172C67.7764 39.4147 68.3597 39.76 68.8544 40.208C69.349 40.656 69.7364 41.202 70.0164 41.846C70.2964 42.4807 70.4364 43.1947 70.4364 43.988C70.4364 44.7813 70.2964 45.5047 70.0164 46.158C69.7364 46.8113 69.349 47.3713 68.8544 47.838C68.3597 48.2953 67.7764 48.65 67.1044 48.902C66.4324 49.154 65.7044 49.28 64.9204 49.28C64.1364 49.28 63.4084 49.154 62.7364 48.902C62.0644 48.65 61.481 48.2953 60.9864 47.838C60.501 47.3713 60.1184 46.8113 59.8384 46.158C59.5584 45.5047 59.4184 44.7813 59.4184 43.988ZM62.9604 43.988C62.9604 44.3147 63.007 44.6133 63.1004 44.884C63.203 45.1547 63.3384 45.388 63.5064 45.584C63.6837 45.78 63.8937 45.934 64.1364 46.046C64.379 46.1487 64.6404 46.2 64.9204 46.2C65.2004 46.2 65.457 46.1487 65.6904 46.046C65.933 45.934 66.143 45.78 66.3204 45.584C66.4977 45.388 66.633 45.1547 66.7264 44.884C66.8291 44.6133 66.8804 44.3147 66.8804 43.988C66.8804 43.6707 66.8291 43.3813 66.7264 43.12C66.633 42.8493 66.4977 42.6253 66.3204 42.448C66.143 42.2613 65.933 42.1167 65.6904 42.014C65.457 41.9113 65.2004 41.86 64.9204 41.86C64.6404 41.86 64.379 41.9113 64.1364 42.014C63.8937 42.1167 63.6837 42.2613 63.5064 42.448C63.3384 42.6253 63.203 42.8493 63.1004 43.12C63.007 43.3813 62.9604 43.6707 62.9604 43.988ZM71.3949 43.988C71.3949 43.1947 71.5349 42.4807 71.8149 41.846C72.0949 41.202 72.4776 40.656 72.9629 40.208C73.4576 39.76 74.0409 39.4147 74.7129 39.172C75.3849 38.9293 76.1129 38.808 76.8969 38.808C77.6809 38.808 78.4089 38.9293 79.0809 39.172C79.7529 39.4147 80.3363 39.76 80.8309 40.208C81.3256 40.656 81.7129 41.202 81.9929 41.846C82.2729 42.4807 82.4129 43.1947 82.4129 43.988C82.4129 44.7813 82.2729 45.5047 81.9929 46.158C81.7129 46.8113 81.3256 47.3713 80.8309 47.838C80.3363 48.2953 79.7529 48.65 79.0809 48.902C78.4089 49.154 77.6809 49.28 76.8969 49.28C76.1129 49.28 75.3849 49.154 74.7129 48.902C74.0409 48.65 73.4576 48.2953 72.9629 47.838C72.4776 47.3713 72.0949 46.8113 71.8149 46.158C71.5349 45.5047 71.3949 44.7813 71.3949 43.988ZM74.9369 43.988C74.9369 44.3147 74.9836 44.6133 75.0769 44.884C75.1796 45.1547 75.3149 45.388 75.4829 45.584C75.6603 45.78 75.8703 45.934 76.1129 46.046C76.3556 46.1487 76.6169 46.2 76.8969 46.2C77.1769 46.2 77.4336 46.1487 77.6669 46.046C77.9096 45.934 78.1196 45.78 78.2969 45.584C78.4743 45.388 78.6096 45.1547 78.7029 44.884C78.8056 44.6133 78.8569 44.3147 78.8569 43.988C78.8569 43.6707 78.8056 43.3813 78.7029 43.12C78.6096 42.8493 78.4743 42.6253 78.2969 42.448C78.1196 42.2613 77.9096 42.1167 77.6669 42.014C77.4336 41.9113 77.1769 41.86 76.8969 41.86C76.6169 41.86 76.3556 41.9113 76.1129 42.014C75.8703 42.1167 75.6603 42.2613 75.4829 42.448C75.3149 42.6253 75.1796 42.8493 75.0769 43.12C74.9836 43.3813 74.9369 43.6707 74.9369 43.988ZM83.8195 49V39.088H87.5155C88.2995 39.088 89.0462 39.1673 89.7555 39.326C90.4742 39.4753 91.1042 39.7413 91.6455 40.124C92.1962 40.4973 92.6348 40.9967 92.9615 41.622C93.2882 42.2473 93.4515 43.036 93.4515 43.988C93.4515 44.856 93.2928 45.6073 92.9755 46.242C92.6675 46.8767 92.2522 47.3993 91.7295 47.81C91.2068 48.2113 90.6048 48.51 89.9235 48.706C89.2422 48.902 88.5328 49 87.7955 49H83.8195ZM87.0255 41.916V46.144H87.6415C88.4255 46.144 89.0275 45.976 89.4475 45.64C89.8675 45.2947 90.0775 44.7347 90.0775 43.96C90.0775 43.316 89.8675 42.8167 89.4475 42.462C89.0275 42.098 88.4675 41.916 87.7675 41.916H87.0255Z" fill="#362C27"/>
</svg>
