<svg width="36" height="37" viewBox="0 0 36 37" fill="none" xmlns="http://www.w3.org/2000/svg">
<g clip-path="url(#clip0_1149_2919)">
<path d="M35.4441 3.65806C35.0044 3.10793 34.3458 2.80505 33.5894 2.80505C33.1782 2.80505 32.7426 2.89356 32.2949 3.0686L1.82159 14.9682C0.204402 15.5995 -0.0134017 16.5469 0.000605818 17.0555C0.0146134 17.564 0.284602 18.4974 1.9342 19.0343C1.94409 19.0374 1.95397 19.0405 1.96386 19.0433L8.28485 20.8937L11.7032 30.8932C12.1693 32.2564 13.2155 33.1032 14.4339 33.1032C15.2021 33.1032 15.9577 32.7739 16.6191 32.1513L20.5288 28.4687L26.1997 33.1398C26.2003 33.1403 26.2011 33.1406 26.2016 33.1412L26.2555 33.1855C26.2604 33.1895 26.2656 33.1937 26.2706 33.1976C26.9009 33.6977 27.5889 33.9618 28.261 33.9621H28.2613C29.5744 33.9621 30.6201 32.9678 30.9246 31.4293L35.9177 6.20892C36.1182 5.19661 35.9501 4.29078 35.4441 3.65806V3.65806ZM10.3994 20.5422L22.5945 14.1692L15.0011 22.423C14.8766 22.5581 14.7885 22.7236 14.7451 22.9037L13.2809 28.9708L10.3994 20.5422ZM15.19 30.5639C15.1395 30.6114 15.0887 30.6538 15.0379 30.6928L16.3963 25.0646L18.8674 27.1002L15.19 30.5639ZM33.8503 5.78045L28.8573 31.0011C28.8092 31.2424 28.6557 31.8041 28.261 31.8041C28.066 31.8041 27.821 31.6953 27.5702 31.4978L21.1443 26.205C21.1435 26.2042 21.1424 26.2033 21.1413 26.2028L17.3178 23.0532L28.2989 11.1171C28.6505 10.7349 28.6823 10.1497 28.3744 9.72994C28.0663 9.31018 27.5079 9.17813 27.0511 9.41695L8.99017 18.8556L2.58322 16.9805L33.0472 5.0845C33.3046 4.98392 33.4842 4.96285 33.5894 4.96285C33.6539 4.96285 33.7687 4.97071 33.8113 5.02438C33.8673 5.09434 33.9387 5.33287 33.8503 5.78045V5.78045Z" fill="#FFCA41"/>
</g>
<defs>
<clipPath id="clip0_1149_2919">
<rect width="36" height="36.8263" fill="white"/>
</clipPath>
</defs>
</svg>
