<svg width="36" height="36" viewBox="0 0 36 36" fill="none" xmlns="http://www.w3.org/2000/svg">
<g clip-path="url(#clip0_1139_1072)">
<path d="M35.4441 3.57605C35.0044 3.03827 34.3458 2.74219 33.5894 2.74219C33.1782 2.74219 32.7426 2.8287 32.2949 2.99982L1.82159 14.6324C0.204402 15.2496 -0.0134017 16.1757 0.000605818 16.6729C0.0146134 17.17 0.284602 18.0824 1.9342 18.6073C1.94409 18.6103 1.95397 18.6133 1.96386 18.6161L8.28485 20.425L11.7032 30.2C12.1693 31.5327 13.2155 32.3605 14.4339 32.3605C15.2021 32.3605 15.9577 32.0386 16.6191 31.43L20.5288 27.83L26.1997 32.3962C26.2003 32.3968 26.2011 32.397 26.2016 32.3976L26.2555 32.441C26.2604 32.4448 26.2656 32.4489 26.2706 32.4528C26.9009 32.9417 27.5889 33.1999 28.261 33.2001H28.2613C29.5744 33.2001 30.6201 32.2281 30.9246 30.7241L35.9177 6.06967C36.1182 5.08008 35.9501 4.19458 35.4441 3.57605ZM10.3994 20.0814L22.5945 13.8513L15.0011 21.9199C14.8766 22.052 14.7885 22.2138 14.7451 22.3899L13.2809 28.3208L10.3994 20.0814ZM15.19 29.8781C15.1395 29.9246 15.0887 29.966 15.0379 30.0042L16.3963 24.5023L18.8674 26.4922L15.19 29.8781ZM33.8503 5.65082L28.8573 30.3055C28.8092 30.5414 28.6557 31.0905 28.261 31.0905C28.066 31.0905 27.821 30.9842 27.5702 30.7911L21.1443 25.6171C21.1435 25.6163 21.1424 25.6154 21.1413 25.6149L17.3178 22.536L28.2989 10.8677C28.6505 10.4941 28.6823 9.92203 28.3744 9.51169C28.0663 9.10135 27.5079 8.97226 27.0511 9.20572L8.99017 18.4326L2.58322 16.5995L33.0472 4.97049C33.3046 4.87216 33.4842 4.85156 33.5894 4.85156C33.6539 4.85156 33.7687 4.85925 33.8113 4.91171C33.8673 4.9801 33.9387 5.21329 33.8503 5.65082Z" fill="#FCFFFC"/>
</g>
<defs>
<clipPath id="clip0_1139_1072">
<rect width="36" height="36" fill="white"/>
</clipPath>
</defs>
</svg>
