<svg width="36" height="36" viewBox="0 0 36 36" fill="none" xmlns="http://www.w3.org/2000/svg">
<g clip-path="url(#clip0_1149_2918)">
<path d="M30.8867 5.11331C27.5891 1.81577 23.2059 0 18.5422 0C18.5419 0 18.5408 0 18.5405 0C16.234 0.000274658 13.9861 0.446869 11.86 1.3277C9.73362 2.20853 7.82859 3.48212 6.19739 5.11331C2.90012 8.41058 1.08435 12.7947 1.08435 17.4578C1.08435 20.2387 1.75534 23.0023 3.02674 25.4647L0.0922893 33.8478C-0.114528 34.4391 0.0318645 35.0818 0.475163 35.5248C0.785252 35.8352 1.19339 36 1.61307 36C1.79297 36 1.9748 35.9698 2.15223 35.9077L10.5353 32.9735C12.9977 34.2449 15.7613 34.9159 18.5422 34.9159C23.2053 34.9159 27.5891 33.0999 30.8867 29.8026C34.184 26.5053 36 22.1212 36 17.4581C36 12.7947 34.1842 8.41058 30.8867 5.11331V5.11331ZM29.3937 28.3096C26.4952 31.2083 22.6412 32.8044 18.5422 32.8044C16.0346 32.8044 13.5434 32.1842 11.3379 31.0103C10.938 30.7977 10.4653 30.7612 10.041 30.9098L2.42469 33.5753L5.09052 25.959C5.23911 25.5341 5.20231 25.0615 4.98972 24.6618C3.81611 22.4569 3.19565 19.9657 3.19565 17.4578C3.19565 13.3588 4.79197 9.50482 7.69043 6.60635C10.5886 3.70816 14.4421 2.11185 18.5408 2.1113H18.5422C22.6415 2.1113 26.4952 3.70761 29.3937 6.60635C32.2924 9.50482 33.8887 13.3586 33.8887 17.4578C33.8887 21.5571 32.2924 25.4111 29.3937 28.3096V28.3096Z" fill="#FFCA41"/>
<path d="M25.0301 19.0173C24.227 18.2142 22.9202 18.2142 22.1171 19.0173L21.2387 19.8957C19.0577 18.7072 17.2927 16.9423 16.104 14.7612L16.9824 13.8828C17.7857 13.0797 17.7857 11.7729 16.9824 10.9698L14.6154 8.60281C13.8123 7.79971 12.5054 7.79971 11.7023 8.60281L9.80885 10.4963C8.72422 11.5809 8.67011 13.4456 9.65641 15.7469C10.5128 17.7451 12.08 19.9413 14.0693 21.9306C16.0587 23.92 18.2549 25.4872 20.253 26.3435C21.3464 26.8121 22.341 27.0458 23.2004 27.0458C24.1498 27.0458 24.9343 26.7605 25.5036 26.1911L27.3971 24.2973V24.2976C27.7863 23.9084 28.0006 23.3912 28.0006 22.8411C28.0006 22.2907 27.7863 21.7735 27.3971 21.3846L25.0301 19.0173ZM24.0106 24.6981C23.7011 25.0076 22.7491 25.1161 21.0849 24.4031C19.3277 23.65 17.3663 22.2415 15.5624 20.4376C13.7584 18.6336 12.3503 16.6725 11.5971 14.9153C10.8839 13.2511 10.9923 12.2989 11.3019 11.9893L13.1591 10.1321L15.4531 12.4263L14.3536 13.5261C13.8565 14.0232 13.7365 14.7771 14.0553 15.4023C15.5009 18.2367 17.7632 20.4991 20.5977 21.9446C21.2231 22.2635 21.977 22.1437 22.4742 21.6463L23.5736 20.5469L25.8678 22.8411L24.0106 24.6981Z" fill="#FFCA41"/>
</g>
<defs>
<clipPath id="clip0_1149_2918">
<rect width="36" height="36" fill="white"/>
</clipPath>
</defs>
</svg>
