<svg width="36" height="36" viewBox="0 0 36 36" fill="none" xmlns="http://www.w3.org/2000/svg">
<g clip-path="url(#clip0_1139_1077)">
<path d="M30.8867 5.11331C27.5891 1.81577 23.2059 0 18.5422 0C18.5419 0 18.5408 0 18.5405 0C16.234 0.000274658 13.9861 0.446869 11.86 1.3277C9.73362 2.20853 7.82859 3.48212 6.19739 5.11331C2.90012 8.41058 1.08435 12.7947 1.08435 17.4578C1.08435 20.2387 1.75534 23.0023 3.02674 25.4647L0.0922893 33.8478C-0.114528 34.4391 0.0318645 35.0818 0.475163 35.5248C0.785252 35.8352 1.19339 36 1.61307 36C1.79297 36 1.9748 35.9698 2.15223 35.9077L10.5353 32.9735C12.9977 34.2449 15.7613 34.9159 18.5422 34.9159C23.2053 34.9159 27.5891 33.0999 30.8867 29.8026C34.184 26.5053 36 22.1212 36 17.4581C36 12.7947 34.1842 8.41058 30.8867 5.11331ZM29.3937 28.3096C26.4952 31.2083 22.6412 32.8044 18.5422 32.8044C16.0345 32.8044 13.5434 32.1842 11.3379 31.0103C10.938 30.7977 10.4653 30.7612 10.041 30.9098L2.42469 33.5753L5.09052 25.959C5.23911 25.5341 5.20231 25.0615 4.98972 24.6618C3.81611 22.4569 3.19565 19.9657 3.19565 17.4578C3.19565 13.3588 4.79197 9.50482 7.69043 6.60635C10.5886 3.70816 14.4421 2.11185 18.5408 2.1113H18.5422C22.6415 2.1113 26.4952 3.70761 29.3937 6.60635C32.2924 9.50482 33.8887 13.3586 33.8887 17.4578C33.8887 21.5571 32.2924 25.4111 29.3937 28.3096Z" fill="#FCFFFC"/>
<path d="M25.0292 19.0173C24.2261 18.2142 22.9192 18.2142 22.1161 19.0173L21.2378 19.8957C19.0567 18.7072 17.2918 16.9423 16.103 14.7612L16.9814 13.8828C17.7848 13.0797 17.7848 11.7729 16.9814 10.9698L14.6144 8.60281C13.8113 7.79971 12.5045 7.79971 11.7014 8.60281L9.80787 10.4963C8.72324 11.5809 8.66914 13.4456 9.65543 15.7469C10.5118 17.7451 12.079 19.9413 14.0684 21.9306C16.0577 23.92 18.2539 25.4872 20.252 26.3435C21.3454 26.8121 22.34 27.0458 23.1994 27.0458C24.1489 27.0458 24.9333 26.7605 25.5027 26.1911L27.3962 24.2973V24.2976C27.7853 23.9084 27.9996 23.3912 27.9996 22.8411C27.9996 22.2907 27.7853 21.7735 27.3962 21.3846L25.0292 19.0173ZM24.0096 24.6981C23.7001 25.0076 22.7481 25.1161 21.084 24.4031C19.3267 23.65 17.3654 22.2415 15.5614 20.4376C13.7575 18.6336 12.3493 16.6725 11.5962 14.9153C10.8829 13.2511 10.9914 12.2989 11.3009 11.9893L13.1582 10.1321L15.4521 12.4263L14.3526 13.5261C13.8555 14.0232 13.7355 14.7771 14.0544 15.4023C15.4999 18.2367 17.7622 20.4991 20.5967 21.9446C21.2221 22.2635 21.9761 22.1437 22.4732 21.6463L23.5726 20.5469L25.8669 22.8411L24.0096 24.6981Z" fill="#FCFFFC"/>
</g>
<defs>
<clipPath id="clip0_1139_1077">
<rect width="36" height="36" fill="white"/>
</clipPath>
</defs>
</svg>
