<svg width="36" height="36" viewBox="0 0 36 36" fill="none" xmlns="http://www.w3.org/2000/svg">
<g clip-path="url(#clip0_1149_2916)">
<path d="M23.5411 16.3822L15.5879 12.0305C15.1306 11.7803 14.5901 11.7896 14.1418 12.0552C13.6933 12.3211 13.4258 12.7908 13.4258 13.3121V21.9407C13.4258 22.4596 13.6916 22.9284 14.1371 23.1946C14.3698 23.3335 14.6277 23.4033 14.8861 23.4033C15.1229 23.4033 15.3602 23.3448 15.5785 23.2272L23.5321 18.9505C24.0042 18.6965 24.2989 18.2057 24.3011 17.6693C24.303 17.1329 24.0119 16.6398 23.5411 16.3822V16.3822ZM15.5354 20.8553V14.4063L21.4795 17.6588L15.5354 20.8553Z" fill="#FFCA41"/>
<path d="M35.7351 10.7949L35.7334 10.7784C35.703 10.4886 35.3995 7.91125 34.1465 6.60031C32.6982 5.05838 31.0563 4.87106 30.2667 4.78125C30.2013 4.77383 30.1414 4.76697 30.0879 4.75983L30.025 4.75323C25.2657 4.40717 18.0782 4.35992 18.0062 4.35965L17.9999 4.35938L17.9936 4.35965C17.9217 4.35992 10.7341 4.40717 5.93204 4.75323L5.8686 4.75983C5.81751 4.76669 5.76121 4.77301 5.69996 4.78015C4.91938 4.87024 3.29506 5.05783 1.84267 6.65552C0.649289 7.95245 0.30432 10.4746 0.268889 10.7581L0.264769 10.7949C0.254058 10.9155 0 13.7859 0 16.6676V19.3615C0 22.2432 0.254058 25.1136 0.264769 25.2345L0.266692 25.2526C0.297179 25.5377 0.6004 28.0679 1.84762 29.3794C3.20937 30.8697 4.93119 31.0669 5.85734 31.1729C6.00373 31.1896 6.1298 31.2039 6.21577 31.219L6.29899 31.2306C9.04693 31.492 17.6627 31.6208 18.0279 31.6261L18.0389 31.6263L18.0499 31.6261C18.1219 31.6258 25.3091 31.5786 30.0684 31.2325L30.1313 31.2259C30.1914 31.2179 30.259 31.2108 30.3331 31.2031C31.1093 31.1207 32.7248 30.9496 34.1572 29.3736C35.3506 28.0764 35.6958 25.5542 35.731 25.271L35.7351 25.2342C35.7458 25.1134 36.0001 22.2432 36.0001 19.3615V16.6676C35.9999 13.7859 35.7458 10.9157 35.7351 10.7949V10.7949ZM33.8902 19.3615C33.8902 22.0287 33.6573 24.7755 33.6353 25.0277C33.5458 25.7223 33.1819 27.3181 32.6004 27.95C31.7039 28.9363 30.783 29.0341 30.1107 29.1053C30.0294 29.1138 29.9541 29.122 29.886 29.1305C25.2827 29.4634 18.3666 29.5145 18.048 29.5164C17.6907 29.5112 9.20101 29.3813 6.53684 29.1338C6.40033 29.1116 6.25284 29.0945 6.09739 29.077C5.30885 28.9866 4.22945 28.863 3.39943 27.95L3.37993 27.9292C2.80864 27.334 2.45516 25.8418 2.36535 25.0359C2.34859 24.8453 2.10964 22.066 2.10964 19.3615V16.6676C2.10964 14.0034 2.342 11.2596 2.36452 11.0023C2.47136 10.1841 2.84215 8.68497 3.39943 8.07907C4.32338 7.06284 5.29759 6.95023 5.94193 6.87579C6.00346 6.86865 6.06086 6.86206 6.11387 6.85519C10.7841 6.52066 17.75 6.47095 17.9999 6.46902C18.2499 6.47067 25.2133 6.52066 29.842 6.85519C29.8989 6.86234 29.961 6.86948 30.0277 6.87717C30.6905 6.9527 31.6921 7.06696 32.6114 8.04749L32.6199 8.05655C33.1912 8.65173 33.5447 10.17 33.6345 10.9921C33.6504 11.172 33.8902 13.9573 33.8902 16.6676V19.3615Z" fill="#FFCA41"/>
</g>
<defs>
<clipPath id="clip0_1149_2916">
<rect width="36" height="36" fill="white"/>
</clipPath>
</defs>
</svg>
